<svg xmlns="http://www.w3.org/2000/svg" viewBox="0 0 60.4 92"><defs><style>.cls-1{isolation:isolate;}</style></defs><title>bag_icon_fabfoxx</title><g id="check" class="cls-1"><path d="M29.56,26.9c0.35-4.37.35-8.08,1-11.92,0.81-4.59,3.88-7.32,7.72-7.69,5.36-.51,9.12,2.82,9.75,8.93,0.31,3,.21,6,0.28,9,0,1.4,0,2.81,0,4.3l12.53,1.83c0.28,12.38.78,24.63,1.05,36.88a0.36,0.36,0,0,0,0-.13c0.36-10,.83-20,1.17-30,0.11-3.37.05-5.61,0.27-6.93,0,0,3.2-.65,6.38-1.5s6.48-1.78,9.72-2.65a2,2,0,0,1,.91-0.12c0,0.73,0,2,0,2.86,0,18.75,0,37.51,0,56.26,0,2.51,0,2.51-2.43,3.79-4.4,2.31-9,4.26-13.45,6.42-2.14,1-1.61,1-4,.28-12.69-3.71-25.38-7.4-38-11.31-3-.93-2.49-0.87-2.41-3.35,0.57-17.77.35-37.48,0-55.26,0-2-.55-1.73,1.94-1.13C24,25.89,27.63,26.67,29.56,26.9Zm3.59-2.39a22.34,22.34,0,0,0,0,2.92C37.32,28,40.72,28.51,45,29.1a116.9,116.9,0,0,0-.7-14.35,4.52,4.52,0,0,0-4.63-4c-2.5-.1-4.53,1-5.15,3.38A57.67,57.67,0,0,0,33.29,23,7.71,7.71,0,0,0,33.14,24.51Z" transform="translate(-20 -5)"/><path d="M53.48,24.18l-3.2-.24c0-3.49-.07-6.84,0-10.19,0.13-4.74,2.49-7.8,6.46-8.58s8.85,1.35,10.09,5.57C68.22,15.43,68.56,20.85,69.4,26c-1.62,0-2.54-.42-3.65-0.42-0.19-2.85-.28-5.66-0.59-8.45A19,19,0,0,0,64,11.95a6,6,0,0,0-6.81-3.44C54.87,9,53.58,10.82,53.5,14S53.48,20.54,53.48,24.18Z" transform="translate(-20 -5)"/><polygon points="60.38 21.85 49.4 20.79 33.48 18.94 19.88 17.32 0 20.07 1.75 20.34 19.78 17.64 58.74 22.17 60.38 21.85"/></g></svg>