<svg xmlns="http://www.w3.org/2000/svg" viewBox="0 0 91.97 79.99"><defs><style>.cls-1{isolation:isolate;}.cls-2{fill-rule:evenodd;}</style></defs><title>favorits_icon_fabfoxx</title><g id="Ellipse_6" data-name="Ellipse 6" class="cls-1"><g id="Ellipse_6-2" data-name="Ellipse 6"><path class="cls-2" d="M95.75,32.68C93.84,19.19,81.82,10,69.08,10a26.14,26.14,0,0,0-11.65,2.73,83.67,83.67,0,0,0-7.66,4.86s-0.17-.13-0.33-0.28a27.05,27.05,0,0,0-32-3.72A26.24,26.24,0,0,0,4.47,41a29.13,29.13,0,0,0,8.68,15.87c8.46,8.39,23.1,22.85,31.16,30.82a8.21,8.21,0,0,0,11.5,0c8.28-8.15,23.5-23.19,32.29-32.11A26.11,26.11,0,0,0,95.75,32.68Z" transform="translate(-4.07 -10)"/></g></g></svg>