<svg xmlns="http://www.w3.org/2000/svg" viewBox="0 0 67 84"><defs><style>.cls-1{isolation:isolate;}</style></defs><title>logo_bottom_icon_fabfoxx</title><g id="bottom_logo" data-name="bottom logo" class="cls-1"><g id="bottom_logo-2" data-name="bottom logo"><path d="M17,91.84h1.28V83.23h5V82.09h-5V74H24.4V72.83H17v19ZM83.84,8H51V69H83.84V8Zm-7.59,7.63H59.84V38.88H73.53v1.47H59.84v23H58.3V14.15h18v1.48ZM49.81,8H17V69H49.81V8ZM42.55,63.32H41v-23H27.32V38.88H41V15.63H24.59V14.15h18V63.32ZM45.3,91.84h1.28V83.23h5V82.09h-5V74H52.7V72.83H45.3v19ZM79.63,82l4.09-9.15H82.5L78.8,81l-3.67-8.17H73.79L77.88,82l-4.4,9.85h1.25l4-8.85,4,8.85H84Zm-7-9.15H71.37L67.67,81,64,72.83H62.66L66.75,82l-4.4,9.85h1.25l4-8.85,4,8.85h1.36L68.5,82Zm-43.74,0-4.26,19h1.17l1-4.21H32.8l1,4.21h1.28l-4.34-19H28.85ZM26.93,86.54l2.81-12.3,2.87,12.3H26.93ZM41.4,81.71C43.38,81.3,44,80,44,78V76.88c0-2.63-1.06-4-4-4H35.89v19h4.17c3,0,4.26-1.66,4.26-4.4V85.78C44.32,83.64,43.51,82.12,41.4,81.71ZM37.17,74H40c2.09,0,2.73,1,2.73,3v1.22c0,2.42-1.06,3-3.34,3H37.17V74ZM43,87.41c0,2.12-.83,3.28-3,3.28H37.17V82.36h2.42c2.31,0,3.45.87,3.45,3.34v1.71ZM57.71,72.67c-2.95,0-4.26,2-4.26,4.8V87.2C53.45,90,54.76,92,57.71,92S62,90,62,87.2V77.48C62,74.71,60.71,72.67,57.71,72.67Zm3,14.61c0,2.06-.86,3.58-3,3.58s-3-1.52-3-3.58V77.4c0-2.06.83-3.58,3-3.58s3,1.52,3,3.58v9.88Z" transform="translate(-17 -8)"/></g></g></svg>