<svg xmlns="http://www.w3.org/2000/svg" viewBox="0 0 92 92"><defs><style>.cls-1{isolation:isolate;}.cls-2{fill-rule:evenodd;}</style></defs><title>share_icon_fabfoxx</title><g id="share" class="cls-1"><g id="share-2" data-name="share"><path class="cls-2" d="M77.6,59.2a18.35,18.35,0,0,0-13.86,6.32L40.39,53.85a18.24,18.24,0,0,0,0-7.7L63.74,34.47a18.36,18.36,0,1,0-4.13-8.22L36.26,37.92a18.4,18.4,0,1,0,0,24.15L59.61,73.74A18.4,18.4,0,1,0,77.6,59.2Zm0-46a9.2,9.2,0,1,1-9.2,9.2A9.2,9.2,0,0,1,77.6,13.2Zm-55.2,46A9.2,9.2,0,1,1,31.6,50,9.2,9.2,0,0,1,22.4,59.2ZM77.6,86.8a9.2,9.2,0,1,1,9.2-9.2A9.2,9.2,0,0,1,77.6,86.8Z" transform="translate(-4 -4)"/></g></g></svg>