<svg xmlns="http://www.w3.org/2000/svg" viewBox="0 0 90.12 92.06"><defs><style>.cls-1{isolation:isolate;}</style></defs><title>social_instagram_icon_fabfoxx</title><g id="instagram" class="cls-1"><g id="instagram-2" data-name="instagram"><path d="M49.71,29.82A20.81,20.81,0,1,0,70.63,50.63,20.87,20.87,0,0,0,49.71,29.82ZM81.63,3.93H18.33A13.38,13.38,0,0,0,4.92,17.27V82.65A13.37,13.37,0,0,0,18.33,96h63.3A13.38,13.38,0,0,0,95,82.65V17.27A13.38,13.38,0,0,0,81.63,3.93ZM49.85,77.84A27.06,27.06,0,1,1,77.19,50.77,27.21,27.21,0,0,1,49.85,77.84ZM76.37,30.27a7.93,7.93,0,1,1,8-7.93A8,8,0,0,1,76.37,30.27Zm0.2-12.17a4.32,4.32,0,1,0,4.28,4.32A4.3,4.3,0,0,0,76.56,18.1Z" transform="translate(-4.92 -3.93)"/></g></g></svg>