<?xml version="1.0" standalone="no"?>
<!DOCTYPE svg PUBLIC "-//W3C//DTD SVG 20010904//EN"
 "http://www.w3.org/TR/2001/REC-SVG-20010904/DTD/svg10.dtd">
<svg version="1.0" xmlns="http://www.w3.org/2000/svg"
 width="848.000000pt" height="848.000000pt" viewBox="0 0 848.000000 848.000000"
 preserveAspectRatio="xMidYMid meet">
<metadata>
Created by potrace 1.11, written by Peter Selinger 2001-2013
</metadata>
<g transform="translate(0.000000,848.000000) scale(0.100000,-0.100000)"
fill="#000000" stroke="none">
<path d="M0 4240 l0 -3920 2081 0 2081 0 -4 25 c-3 14 -2 25 3 25 4 0 4 14 -1
30 -5 17 -5 30 0 30 5 0 5 13 0 30 -5 17 -5 30 0 30 5 0 5 13 0 30 -5 18 -5
30 0 30 6 0 6 10 0 24 -5 13 -6 27 -3 30 8 8 9 76 1 76 -4 0 -3 14 2 30 5 17
5 30 1 30 -4 0 -4 27 -1 60 3 33 3 60 -1 60 -4 0 -4 14 1 30 5 17 5 30 0 30
-5 0 -5 13 0 30 5 17 5 30 0 30 -4 0 -5 15 -1 33 4 17 4 47 0 65 -3 17 -3 32
2 32 4 0 4 14 -1 30 -5 17 -5 30 0 30 5 0 5 13 0 30 -5 17 -5 30 0 30 5 0 5
13 0 30 -5 17 -5 30 0 30 5 0 5 13 0 30 -5 17 -5 30 0 30 5 0 7 6 4 14 -8 22
-10 116 -2 116 4 0 4 10 -1 23 -5 12 -5 32 0 45 5 12 4 22 0 22 -5 0 -5 16 -1
35 4 19 4 37 0 40 -5 3 -5 19 0 35 5 17 5 30 1 30 -4 0 -5 20 -1 45 4 24 3 50
-1 57 -4 6 -4 19 1 28 5 9 5 22 0 30 -5 8 -5 21 0 30 5 9 5 22 0 30 -5 8 -5
21 0 30 5 9 5 22 0 30 -5 8 -5 21 0 30 5 9 5 22 0 30 -5 8 -5 21 0 30 5 9 5
22 0 30 -5 8 -5 21 0 30 5 9 5 22 0 30 -5 8 -5 21 0 30 5 9 5 22 0 30 -5 8 -5
21 0 30 5 9 5 22 0 30 -5 8 -5 21 0 31 5 9 7 19 4 22 -9 8 -10 97 -2 97 4 0 4
10 -1 23 -5 12 -5 32 0 45 5 12 4 22 0 22 -5 0 -5 16 -1 35 4 19 4 37 0 40 -5
3 -5 19 0 35 5 17 5 30 1 30 -4 0 -4 25 -1 55 3 30 3 55 -1 55 -4 0 -4 14 1
30 5 17 5 30 0 30 -5 0 -5 13 0 30 5 17 5 30 0 30 -4 0 -5 15 -1 33 4 17 4 47
0 65 -3 17 -3 32 2 32 4 0 4 14 -1 30 -5 17 -5 30 0 30 5 0 5 13 0 30 -5 17
-5 30 0 30 5 0 5 13 0 30 -5 17 -5 30 0 30 5 0 5 13 0 30 -5 17 -5 30 0 30 5
0 7 6 4 14 -8 22 -10 116 -2 116 4 0 4 10 -1 23 -5 12 -5 32 0 44 5 13 4 23 0
23 -5 0 -5 16 -1 35 4 19 4 37 0 40 -5 3 -5 19 0 35 5 17 5 30 1 30 -4 0 -5
20 -1 45 4 24 3 50 -1 57 -4 6 -4 19 1 28 5 9 5 22 0 30 -5 8 -5 21 0 30 5 9
5 22 0 30 -5 8 -5 21 0 30 5 9 5 22 0 30 -5 8 -5 21 0 30 5 9 5 22 0 30 -5 8
-5 21 0 30 5 9 5 22 0 30 -5 8 -5 21 0 30 5 9 5 22 0 30 -5 8 -5 21 0 30 5 9
5 22 0 30 -5 8 -5 21 0 30 5 9 5 22 0 30 -5 8 -5 21 0 31 5 9 7 19 4 22 -9 8
-10 97 -2 97 4 0 4 10 -1 23 -5 12 -5 32 0 45 5 12 4 22 0 22 -5 0 -5 16 -1
35 4 19 4 37 0 40 -5 3 -5 19 0 35 5 17 6 30 2 30 -4 0 -7 20 -7 45 0 25 3 45
7 45 4 0 4 10 -1 23 -5 12 -5 32 0 45 5 12 4 22 0 22 -5 0 -5 16 -1 35 4 19 4
37 0 40 -5 3 -5 19 0 35 5 17 5 30 1 30 -4 0 -5 20 -1 45 4 24 3 50 -1 57 -4
6 -4 19 1 28 5 9 5 22 0 30 -5 8 -5 21 0 30 5 9 5 22 0 30 -5 8 -5 21 0 30 5
9 5 22 0 30 -5 8 -5 21 0 30 5 9 5 22 0 30 -5 8 -5 21 0 30 5 9 5 22 0 30 -5
8 -5 21 0 30 5 9 5 22 0 30 -5 8 -5 21 0 30 5 9 5 22 0 30 -5 8 -5 21 0 30 5
9 5 22 0 30 -5 8 -5 21 0 31 5 9 7 19 4 22 -9 8 -10 97 -2 97 4 0 4 10 -1 23
-5 12 -5 32 0 45 5 12 4 22 0 22 -5 0 -5 16 -1 35 4 19 4 37 0 40 -5 3 -5 19
0 35 5 17 6 30 2 30 -4 0 -7 20 -7 45 0 25 3 45 7 45 4 0 4 10 -1 23 -5 12 -5
32 0 45 5 12 4 22 0 22 -5 0 -5 16 -1 35 4 19 4 37 0 40 -5 3 -5 19 0 35 5 17
5 30 1 30 -4 0 -5 20 -1 45 4 24 3 50 -1 57 -4 6 -4 19 1 28 5 9 5 22 0 30 -5
8 -5 21 0 30 5 9 5 22 0 30 -5 8 -5 21 0 30 5 9 5 22 0 30 -5 8 -5 21 0 30 5
9 5 22 0 30 -5 8 -5 21 0 30 5 9 5 22 0 30 -5 8 -5 21 0 30 5 9 5 22 0 30 -5
8 -5 21 0 30 5 9 5 22 0 30 -5 8 -5 21 0 30 5 9 5 22 0 30 -5 8 -5 21 0 31 5
9 7 19 4 22 -9 8 -10 97 -2 97 4 0 4 10 -1 23 -5 12 -5 32 0 45 5 12 4 22 0
22 -5 0 -5 16 -1 35 4 19 4 37 0 40 -5 3 -5 19 0 35 5 17 6 30 2 30 -4 0 -7
20 -7 45 0 25 3 45 7 45 4 0 4 10 -1 23 -5 12 -5 32 0 45 5 12 4 22 0 22 -5 0
-5 16 -1 35 4 19 4 37 0 40 -5 3 -5 19 0 35 5 17 5 30 1 30 -4 0 -5 20 -1 45
4 24 3 50 -1 57 -4 6 -4 19 1 28 5 9 5 22 0 30 -5 8 -5 21 0 30 5 9 5 22 0 30
-5 8 -5 21 0 30 5 9 5 22 0 30 -5 8 -5 21 0 30 5 9 5 22 0 30 -5 8 -5 21 0 30
5 9 5 22 0 30 -5 8 -5 21 0 30 5 9 5 22 0 30 -5 8 -5 21 0 30 5 9 5 22 0 30
-5 8 -5 21 0 30 5 9 5 22 0 30 -5 8 -5 21 0 30 5 9 5 22 1 29 -5 7 -6 22 -4
32 5 19 -40 19 -2076 19 l-2081 0 0 -3920z m3241 3106 c5 -146 0 -2186 -5
-2194 -4 -7 -4 -12 1 -12 10 0 9 -1892 -1 -1908 -4 -7 -4 -12 1 -12 9 0 9
-1240 0 -1264 -4 -9 -3 -16 1 -16 5 0 8 -815 3 -885 -1 -10 -187 -12 -197 -2
-8 7 -8 272 -1 284 3 5 2 15 -3 22 -4 8 -4 25 0 40 4 14 4 35 0 46 -4 11 -4
29 0 41 5 11 5 26 0 34 -4 7 -5 24 -1 37 4 14 4 50 1 79 -3 30 -2 54 3 54 4 0
5 5 2 11 -8 13 -10 263 -2 276 3 5 2 15 -3 22 -4 8 -4 25 0 40 4 14 4 35 0 46
-4 11 -4 29 0 41 5 11 5 26 0 34 -4 7 -5 24 -1 37 4 14 4 50 1 79 -3 30 -2 54
3 54 4 0 5 5 2 11 -8 13 -10 263 -2 276 3 5 2 15 -3 22 -4 8 -4 25 0 40 4 14
4 35 0 46 -4 11 -4 29 0 41 5 11 5 26 0 34 -4 7 -5 24 -1 37 4 14 4 50 1 79
-3 30 -2 54 3 54 4 0 5 5 2 11 -4 6 -6 67 -6 137 1 70 1 136 1 147 0 11 0 31
1 45 0 14 1 36 1 50 0 14 -1 36 -1 50 -1 14 -1 33 -1 43 1 32 1 76 -1 165 0
35 2 66 4 69 3 2 2 17 -3 32 -4 16 -4 34 0 41 5 7 5 23 0 34 -4 12 -4 30 0 41
4 11 4 29 0 40 -4 11 -4 32 1 48 4 15 4 27 0 27 -4 0 -7 10 -7 22 1 17 -5 23
-21 24 -12 1 -28 4 -37 7 -8 3 -18 2 -21 -3 -3 -5 -18 -5 -35 0 -17 5 -30 5
-30 0 0 -5 -13 -5 -30 0 -17 5 -30 5 -30 0 0 -5 -13 -5 -30 0 -17 5 -30 5 -30
0 0 -5 -13 -5 -29 0 -15 4 -34 4 -42 0 -7 -5 -20 -5 -29 0 -9 5 -22 5 -30 0
-7 -4 -20 -6 -28 -2 -19 7 -80 7 -88 0 -3 -3 -21 -2 -40 2 -18 4 -34 5 -34 1
0 -3 -34 -6 -75 -6 -41 0 -75 3 -75 7 0 4 -10 4 -22 -1 -13 -5 -33 -5 -45 0
-12 4 -25 4 -28 0 -3 -5 -21 -5 -40 -1 -19 4 -35 5 -35 1 0 -3 -34 -6 -75 -6
-41 0 -75 4 -75 8 0 5 -5 5 -11 2 -13 -9 -117 -10 -126 -2 -3 4 -13 2 -22 -3
-10 -5 -23 -5 -31 0 -8 5 -21 5 -30 0 -9 -5 -22 -5 -30 0 -8 5 -21 5 -30 0 -9
-5 -22 -5 -30 0 -8 5 -21 5 -30 0 -9 -5 -22 -5 -30 0 -8 5 -21 5 -30 0 -9 -5
-22 -5 -29 0 -8 4 -27 4 -42 0 -16 -5 -29 -5 -29 0 0 5 -13 5 -30 0 -16 -5
-30 -5 -30 0 0 4 -15 5 -32 1 -18 -4 -43 -5 -55 -3 -22 3 -23 8 -23 97 l0 94
862 0 c868 0 892 1 872 33 -3 4 -4 38 -4 75 0 80 0 97 0 121 0 9 0 43 0 76 0
32 -3 62 -6 67 -3 5 0 9 6 9 6 0 8 5 5 11 -4 6 -6 67 -6 137 1 70 1 135 1 145
0 9 0 25 0 35 0 9 0 41 0 70 0 30 -2 58 -5 62 -3 5 -1 11 4 15 6 3 8 12 5 20
-8 20 -10 105 -3 105 3 0 3 20 -1 43 -3 24 -3 52 0 63 4 10 4 31 0 45 -4 15
-4 32 0 39 5 7 5 23 0 34 -4 12 -4 30 0 41 4 11 5 24 3 28 -3 5 -5 30 -5 55 1
26 1 65 1 87 0 22 1 48 1 58 0 39 0 48 0 72 0 14 0 31 1 38 0 6 -1 35 -1 62
-1 46 -1 103 0 148 0 39 0 48 0 72 0 14 0 31 1 38 0 6 -1 35 -1 62 -1 46 -1
103 0 148 0 39 0 48 0 72 0 14 0 32 1 40 0 8 -1 62 -1 120 -1 58 0 108 1 113
1 4 1 11 -1 17 -6 30 -4 105 3 105 5 0 6 4 2 10 -3 5 -5 40 -5 77 0 37 0 77 0
88 0 24 0 53 3 123 1 28 0 52 -3 52 -3 0 -6 12 -5 28 l0 27 -1010 2 c-555 2
-1023 3 -1039 3 -27 0 -28 2 -24 40 2 22 0 40 -4 40 -3 0 -3 14 2 30 5 17 5
30 1 30 -5 0 -6 11 -4 24 l5 24 1139 0 1139 0 1 -22z"/>
<path d="M4322 8145 c-1 -8 -2 -23 -2 -32 0 -22 0 -52 -3 -121 -1 -28 2 -52 6
-52 5 0 5 -5 2 -10 -4 -6 -6 -34 -6 -63 1 -52 1 -74 1 -102 -1 -49 0 -138 1
-157 0 -7 -1 -40 -1 -73 -1 -33 -1 -63 0 -67 2 -10 2 -67 0 -70 -5 -9 -4 -78
2 -78 4 0 3 -13 -2 -30 -5 -16 -5 -30 -1 -30 4 0 4 -25 1 -56 -3 -30 -4 -57
-1 -59 5 -3 6 -70 1 -70 -1 0 -2 -17 -3 -38 -1 -20 1 -37 5 -37 4 0 3 -13 -2
-30 -5 -16 -6 -30 -2 -30 4 0 6 -21 4 -47 -1 -27 -3 -55 -2 -63 0 -17 0 -43
-3 -118 -1 -28 2 -52 6 -52 5 0 5 -5 2 -10 -4 -6 -6 -34 -6 -63 1 -52 1 -74 1
-102 -1 -49 0 -138 1 -157 0 -7 -1 -40 -1 -73 -1 -33 -1 -63 0 -67 2 -10 2
-67 0 -70 -5 -9 -4 -78 2 -78 4 0 3 -13 -2 -30 -5 -16 -5 -30 -1 -30 4 0 4
-25 1 -56 -3 -30 -4 -57 -1 -59 5 -3 6 -70 1 -70 -1 0 -2 -17 -3 -38 -1 -20 1
-37 5 -37 4 0 3 -13 -2 -30 -5 -16 -6 -30 -2 -30 4 0 6 -21 4 -47 -1 -27 -3
-55 -2 -63 0 -17 0 -43 -3 -118 -1 -28 2 -52 6 -52 5 0 5 -5 2 -10 -4 -6 -6
-34 -6 -63 1 -52 1 -74 1 -102 -1 -49 0 -138 1 -157 0 -7 -1 -40 -1 -73 -1
-33 -1 -63 0 -67 2 -10 2 -67 0 -70 -5 -9 -4 -78 2 -78 4 0 3 -13 -2 -30 -5
-16 -5 -30 -1 -30 4 0 4 -25 1 -56 -3 -30 -4 -57 -1 -59 5 -3 6 -70 1 -70 -1
0 -2 -17 -3 -38 -1 -20 1 -37 5 -37 4 0 3 -13 -2 -30 -5 -16 -6 -30 -2 -30 4
0 6 -21 4 -47 -1 -27 -3 -55 -2 -63 0 -17 0 -43 -3 -118 -1 -28 2 -52 6 -52 5
0 5 -5 2 -10 -4 -6 -6 -34 -6 -63 1 -52 1 -74 1 -102 -1 -49 0 -138 1 -157 0
-7 -1 -40 -1 -73 -1 -33 -1 -63 0 -67 2 -10 2 -67 0 -70 -5 -9 -4 -78 2 -78 4
0 3 -13 -2 -30 -5 -16 -5 -30 -1 -30 4 0 4 -27 1 -60 -3 -33 -3 -60 1 -60 4 0
4 -13 -1 -30 -5 -17 -5 -30 0 -30 5 0 5 -13 0 -30 -5 -17 -5 -30 0 -30 5 0 5
-13 0 -29 -4 -15 -4 -34 1 -42 4 -7 4 -18 -1 -24 -5 -6 -5 -17 -1 -24 5 -7 5
-28 1 -47 -4 -19 -4 -34 0 -34 5 0 5 -13 0 -30 -5 -17 -5 -30 0 -30 5 0 5 -13
0 -30 -5 -17 -5 -30 0 -30 5 0 5 -13 0 -29 -4 -15 -4 -34 1 -42 4 -7 4 -18 -1
-24 -5 -6 -5 -17 -1 -24 5 -8 5 -27 1 -42 -5 -16 -5 -31 -2 -33 6 -3 7 -71 2
-71 -1 0 -2 -17 -3 -38 -1 -20 1 -37 5 -37 4 0 3 -13 -2 -30 -5 -16 -6 -30 -2
-30 4 0 6 -21 4 -47 -1 -27 -3 -55 -2 -63 0 -17 0 -43 -3 -118 -1 -28 2 -52 6
-52 5 0 5 -5 2 -10 -4 -6 -6 -34 -6 -63 1 -52 1 -74 1 -102 -1 -49 0 -138 1
-157 0 -7 -1 -40 -1 -73 -1 -33 -1 -63 0 -67 2 -10 2 -67 0 -70 -5 -9 -4 -78
2 -78 4 0 3 -13 -2 -30 -5 -16 -5 -30 -1 -30 4 0 4 -27 1 -60 -3 -33 -3 -60 1
-60 4 0 4 -13 -1 -30 -5 -17 -5 -30 0 -30 5 0 5 -13 0 -30 -5 -17 -5 -30 0
-30 5 0 5 -13 0 -29 -4 -15 -4 -34 1 -42 4 -7 4 -18 -1 -24 -5 -6 -5 -17 -1
-24 5 -7 5 -28 1 -47 -4 -19 -4 -34 0 -34 5 0 5 -13 0 -30 -5 -17 -5 -30 0
-30 5 0 5 -13 0 -30 -5 -17 -5 -30 0 -30 5 0 5 -13 0 -28 -4 -16 -4 -36 1 -45
6 -10 5 -18 -1 -22 -6 -4 -7 -13 -1 -23 4 -9 6 -26 4 -37 -2 -11 -4 -27 -3
-35 0 -17 0 -40 -3 -118 -1 -28 2 -52 6 -52 5 0 5 -5 2 -10 -4 -6 -6 -34 -6
-63 1 -29 1 -60 1 -69 0 -10 0 -26 0 -35 0 -10 0 -33 0 -50 l-1 -33 2081 0
2080 0 0 3920 0 3920 -2078 0 c-1840 0 -2079 -2 -2080 -15z m3196 -811 c-2
-19 -1 -34 2 -34 5 0 2 -111 -4 -117 -1 -2 -469 -3 -1039 -3 l-1037 -1 0 -27
c0 -15 0 -34 0 -42 -1 -8 0 -35 1 -60 2 -25 0 -50 -3 -55 -3 -6 -2 -19 2 -30
4 -11 4 -32 -1 -47 -4 -16 -5 -28 -1 -28 6 0 7 -67 2 -95 -2 -6 -1 -14 0 -20
2 -13 2 -87 0 -100 -1 -5 -2 -14 0 -20 2 -12 2 -178 -1 -185 -1 -3 0 -9 1 -15
4 -23 3 -92 -2 -100 -3 -6 -2 -19 2 -30 4 -11 4 -32 -1 -47 -4 -16 -5 -28 -1
-28 6 0 7 -67 2 -95 -2 -6 -1 -14 0 -20 2 -13 2 -87 0 -100 -1 -5 -2 -14 0
-20 2 -12 2 -178 -1 -185 -1 -3 0 -9 1 -15 4 -23 3 -92 -2 -100 -3 -6 -2 -19
2 -30 4 -11 4 -32 -1 -47 -4 -16 -5 -28 -1 -28 6 0 7 -67 2 -95 -2 -6 -1 -14
0 -20 2 -13 2 -87 0 -100 -1 -5 -2 -14 0 -20 2 -12 2 -178 -1 -185 -1 -3 0 -9
1 -15 4 -23 3 -92 -2 -100 -3 -6 -2 -19 2 -30 4 -11 4 -32 -1 -47 -4 -16 -5
-28 -1 -28 6 0 7 -67 2 -95 -2 -6 -1 -14 0 -20 2 -13 2 -87 0 -100 -1 -5 -2
-14 0 -20 2 -12 2 -178 -1 -185 -1 -3 0 -9 1 -15 5 -25 3 -95 -2 -101 -4 -3
-3 -16 1 -28 5 -11 5 -30 1 -41 -4 -11 -5 -24 -2 -29 8 -14 8 -76 0 -76 -4 0
-3 -13 2 -29 4 -16 6 -32 2 -35 -3 -3 12 -6 34 -6 21 0 411 -1 867 -1 l827 -1
0 -94 c0 -52 -3 -94 -7 -95 -44 -4 -83 -3 -83 3 0 4 -13 3 -30 -2 -17 -5 -32
-5 -35 0 -3 5 -16 5 -28 1 -12 -5 -34 -5 -49 0 -16 4 -28 4 -28 -1 0 -5 -13
-5 -30 0 -17 5 -30 5 -30 0 0 -5 -13 -5 -30 0 -17 5 -30 5 -30 0 0 -5 -13 -5
-30 0 -17 5 -30 5 -30 0 0 -5 -13 -5 -30 0 -17 5 -30 5 -30 0 0 -5 -13 -5 -30
0 -17 5 -30 5 -30 0 0 -5 -13 -5 -29 0 -15 4 -34 4 -42 0 -7 -5 -20 -5 -29 0
-9 5 -22 5 -30 0 -7 -4 -20 -6 -28 -2 -19 7 -80 7 -88 0 -3 -3 -21 -2 -40 2
-18 4 -34 5 -34 1 0 -3 -34 -6 -75 -6 -41 0 -75 3 -75 7 0 4 -10 4 -22 -1 -13
-5 -33 -5 -45 0 -12 4 -25 4 -28 0 -3 -5 -21 -5 -40 -1 -19 4 -35 5 -35 1 0
-3 -34 -6 -75 -6 -41 0 -75 4 -75 8 0 5 -5 5 -11 2 -13 -9 -117 -10 -126 -2
-3 4 -13 2 -22 -3 -10 -5 -23 -5 -30 0 -8 4 -27 4 -42 0 -16 -5 -29 -5 -29 0
0 5 -13 5 -30 0 -16 -5 -30 -5 -30 -1 0 4 -13 6 -29 3 -26 -4 -30 -8 -31 -41
-1 -50 -1 -60 1 -112 1 -25 0 -50 -3 -55 -3 -5 -2 -18 2 -29 4 -11 4 -32 -1
-47 -4 -16 -5 -28 -1 -28 6 0 7 -67 2 -95 -2 -6 -1 -14 0 -20 2 -13 2 -87 0
-100 -1 -5 -1 -14 0 -20 1 -5 1 -28 1 -50 -2 -52 -1 -91 2 -143 1 -23 -1 -42
-4 -42 -4 0 -3 -17 1 -38 3 -21 3 -47 0 -58 -4 -10 -5 -23 -2 -29 3 -5 5 -32
3 -60 -1 -27 -2 -54 -2 -60 2 -57 2 -92 1 -100 -1 -5 -1 -14 0 -20 1 -5 2 -50
1 -100 -1 -89 -2 -103 0 -127 0 -7 0 -26 0 -43 -1 -16 -1 -37 0 -45 0 -8 0
-24 -1 -35 0 -11 0 -28 0 -37 0 -10 0 -39 0 -65 0 -27 1 -69 2 -96 2 -26 0
-47 -4 -47 -4 0 -5 -7 -2 -15 9 -23 10 -225 1 -225 -5 0 -5 -5 -1 -11 3 -6 6
-74 5 -152 -1 -147 -1 -168 0 -189 0 -7 0 -26 0 -43 -1 -16 -1 -37 0 -45 0 -8
0 -24 -1 -35 0 -11 0 -28 0 -37 0 -10 0 -39 0 -65 0 -27 1 -69 2 -96 2 -26 0
-47 -3 -47 -4 0 -3 -17 1 -38 3 -21 3 -47 0 -58 -4 -10 -5 -23 -2 -29 9 -15 3
-118 -7 -124 -7 -5 -168 -6 -191 -2 -8 2 -4 506 4 519 4 7 4 12 -1 12 -10 0
-9 452 1 468 4 7 4 12 -1 12 -10 0 -9 452 1 468 4 7 4 12 -1 12 -10 0 -9 452
1 468 4 7 4 12 -1 12 -10 0 -9 532 1 548 4 7 4 12 -1 12 -10 0 -9 293 1 309 4
6 4 11 -1 11 -10 0 -9 293 1 309 4 6 4 11 -1 11 -10 0 -9 293 1 309 4 6 4 11
-1 11 -10 0 -9 293 1 309 4 6 4 11 -1 11 -10 0 -9 293 1 309 4 6 4 11 -1 11
-10 0 -9 293 1 309 4 6 4 11 -1 11 -10 0 -9 293 1 309 4 6 4 11 -1 11 -10 0
-9 293 1 309 4 6 4 11 -1 11 -10 0 -9 293 1 309 4 6 4 11 -1 11 -10 0 -9 293
1 309 4 6 4 11 -1 11 -10 0 -9 293 1 309 4 6 4 11 -1 11 -6 0 -9 188 -4 257 1
9 274 11 1142 11 l1141 0 -4 -34z"/>
</g>
</svg>
